<?xml version="1.0" encoding="iso-8859-1"?>
<!-- Generator: Adobe Illustrator 19.0.0, SVG Export Plug-In . SVG Version: 6.00 Build 0)  -->
<svg version="1.1" id="Layer_1" xmlns="http://www.w3.org/2000/svg" xmlns:xlink="http://www.w3.org/1999/xlink" x="0px" y="0px"
	 viewBox="0 0 512 512" style="enable-background:new 0 0 512 512;" xml:space="preserve">
<rect x="10.199" y="180.037" style="fill:#F2F2F2;" width="491.602" height="243.761"/>
<polygon style="fill:#FFAD61;" points="291.169,324.796 484.462,131.502 441.159,88.2 247.866,281.493 208.016,364.647 "/>
<g>
	<path style="fill:#534741;" d="M501.801,169.842h-41.254l31.127-31.128c3.983-3.983,3.983-10.441,0-14.425l-43.303-43.303
		c-1.912-1.912-4.507-2.987-7.212-2.987c-2.705,0-5.299,1.075-7.212,2.987l-88.854,88.854H10.199C4.566,169.841,0,174.407,0,180.04
		v243.761c0,5.633,4.566,10.199,10.199,10.199h491.602c5.633,0,10.199-4.566,10.199-10.199V180.04
		C512,174.408,507.434,169.842,501.801,169.842z M441.159,102.623l28.879,28.879L291.797,309.745l-15.38-15.381
		c-3.983-3.984-10.441-3.983-14.424,0s-3.984,10.441,0,14.424l12.63,12.63l-44.888,21.512l26.577-55.456L441.159,102.623z
		 M208.019,374.846c1.493,0,2.998-0.327,4.405-1.002l83.154-39.851c1.04-0.499,1.989-1.17,2.805-1.986L440.15,190.24h51.452v223.363
		H20.398V190.24h304.296l-84.04,84.04c-0.815,0.816-1.487,1.763-1.986,2.805l-37.076,77.363H66.295
		c-5.633,0-10.199,4.566-10.199,10.199s4.566,10.199,10.199,10.199H208.019z"/>
	<path style="fill:#534741;" d="M199.904,246.336h5.1c5.633,0,10.199-4.566,10.199-10.199s-4.566-10.199-10.199-10.199h-5.1
		c-5.633,0-10.199,4.566-10.199,10.199S194.271,246.336,199.904,246.336z"/>
	<path style="fill:#534741;" d="M66.295,246.336h89.753c5.633,0,10.199-4.566,10.199-10.199s-4.566-10.199-10.199-10.199H66.295
		c-5.633,0-10.199,4.566-10.199,10.199S60.662,246.336,66.295,246.336z"/>
	<path style="fill:#534741;" d="M66.295,310.591h138.709c5.633,0,10.199-4.566,10.199-10.199s-4.566-10.199-10.199-10.199H66.295
		c-5.633,0-10.199,4.566-10.199,10.199S60.662,310.591,66.295,310.591z"/>
</g>
</svg>
