<?xml version="1.0" encoding="utf-8"?>
<svg version="1.1" id="Layer_1" x="0px" y="0px" viewBox="0 0 300.346 300.346" style="enable-background:new 0 0 300.346 300.346;" xmlns="http://www.w3.org/2000/svg">
  <g style="" transform="matrix(1.000001, 0, 0, 1.036258, -0.000368, -10.142784)">
    <g>
      <g>
        <path d="M296.725,153.904c-3.612-5.821-9.552-9.841-16.298-11.03c-6.753-1.189-13.704,0.559-19.14,4.835l-21.379,17.125 c-3.533-3.749-8.209-6.31-13.359-7.218c-6.746-1.189-13.703,0.559-19.1,4.805l-12.552,9.921h-32.236 c-5.152,0-10.302-1.238-14.892-3.579l-11.486-5.861c-9.678-4.937-20.537-7.327-31.385-6.908 c-15.046,0.579-29.449,6.497-40.554,16.666L2.455,229.328c-2.901,2.656-3.28,7.093-0.873,10.203l32.406,41.867 c1.481,1.913,3.714,2.933,5.983,2.933c1.374,0,2.762-0.374,4.003-1.151l38.971-24.37c2.776-1.736,5.974-2.654,9.249-2.654h90.429 c12.842,0,25.445-4.407,35.489-12.409l73.145-58.281C300.817,177.855,303.165,164.286,296.725,153.904z M216.812,174.294 c2.034-1.602,4.561-2.236,7.112-1.787c1.536,0.271,2.924,0.913,4.087,1.856l-12.645,10.129c-1.126-2.111-2.581-4.019-4.282-5.672 L216.812,174.294z M281.838,173.64l-73.147,58.282c-7.377,5.878-16.634,9.116-26.067,9.116H92.194 c-6.113,0-12.084,1.714-17.266,4.954l-33.17,20.743L17.799,235.78l56.755-51.969c8.468-7.753,19.45-12.267,30.924-12.708 c8.271-0.32,16.552,1.504,23.932,5.268l11.486,5.861c6.708,3.422,14.234,5.231,21.763,5.231h32.504 c4.278,0,7.757,3.48,7.757,7.758c0,4.105-3.21,7.507-7.308,7.745l-90.45,5.252c-4.169,0.242-7.352,3.817-7.11,7.985 c0.243,4.168,3.798,7.347,7.986,7.109l90.45-5.252c9.461-0.549,17.317-6.817,20.283-15.321l53.916-43.189 c2.036-1.602,4.566-2.237,7.114-1.787c2.551,0.449,4.708,1.909,6.074,4.111C286.277,165.745,285.402,170.801,281.838,173.64z" style="fill: rgb(255, 255, 255);"/>
        <path d="M 175.328 153.419 C 215.207 153.419 247.651 124.048 247.651 87.945 C 247.651 51.843 215.207 22.471 175.328 22.471 C 135.45 22.471 103.006 51.842 103.006 87.945 C 103.006 124.049 135.45 153.419 175.328 153.419 Z M 175.328 39.59 C 204.781 39.59 228.741 61.283 228.741 87.945 C 228.741 114.608 204.779 136.299 175.328 136.299 C 145.876 136.299 121.916 114.607 121.916 87.945 C 121.916 61.282 145.877 39.59 175.328 39.59 Z" style="fill: rgb(255, 255, 255);"/>
        <path d="M 173.378 103.686 C 170.576 103.686 167.602 103.067 165 101.944 C 163.396 101.25 161.526 101.208 159.875 101.825 C 158.194 102.452 156.88 103.7 156.269 105.244 L 156.013 105.889 C 154.925 108.644 156.269 111.698 159.141 112.992 C 161.803 114.193 165.062 115.06 168.393 115.463 L 168.393 117.91 C 168.393 121.095 171.256 123.686 174.86 123.686 C 178.38 123.686 181.242 121.094 181.242 117.91 L 181.242 114.787 C 189.637 112.492 195.022 106.247 195.022 98.723 C 195.022 88.356 186.575 83.907 179.232 81.197 C 171.284 78.219 170.688 76.917 170.688 75.27 C 170.688 73.104 172.769 71.808 176.256 71.808 C 178.811 71.808 181.113 72.222 183.297 73.077 C 184.89 73.699 186.652 73.703 188.258 73.087 C 189.859 72.473 191.131 71.277 191.748 69.803 L 192.002 69.19 C 193.216 66.292 191.717 63.065 188.593 61.846 C 186.497 61.027 184.203 60.455 181.764 60.138 L 181.764 57.978 C 181.764 54.793 178.902 52.201 175.384 52.201 C 171.865 52.201 169.004 54.793 169.004 57.978 L 169.004 60.864 C 160.861 63.093 155.834 68.925 155.834 76.218 C 155.834 85.752 164.288 90.04 172.52 92.963 C 179.499 95.524 180.081 97.563 180.081 99.274 C 180.08 102.531 176.471 103.686 173.378 103.686 Z" style="fill: rgb(255, 255, 255);"/>
      </g>
    </g>
  </g>
</svg>