<?xml version="1.0" encoding="utf-8"?>
<svg viewBox="0 0 512 512" xmlns="http://www.w3.org/2000/svg">
  <g transform="matrix(0.878906, 0, 0, 0.878906, 36.273491, 36.273491)">
    <path style="fill:#FFC10D;" d="M 250.001 47.353 C 138.386 47.353 47.355 138.228 47.355 249.999 C 47.355 361.771 138.229 452.648 250.001 452.648 C 361.616 452.648 452.647 361.774 452.647 250.002 C 452.647 138.23 361.616 47.353 250.001 47.353 Z"/>
    <g transform="matrix(2.448987, 0, 0, 2.448987, -455.308258, -6.001185)">
      <path style="fill:#194F82;" d="M288,139.313c-6.012,0-10.925,4.848-10.925,10.925v4.396c0,6.012,4.849,10.925,10.925,10.925 s10.925-4.848,10.925-10.925v-4.396C298.861,144.162,294.012,139.313,288,139.313z"/>
      <path style="fill:#194F82;" d="M288,0c-57.665,0-104.533,46.933-104.533,104.533S230.4,209.067,288,209.067 s104.533-46.933,104.533-104.533S345.665,0,288,0z M288,187.281c-45.576,0-82.747-37.107-82.747-82.747S242.36,21.786,288,21.786 c45.576,0,82.747,37.107,82.747,82.747S333.576,187.281,288,187.281z"/>
      <path style="fill:#194F82;" d="M296.081,44.412c-35.362-5.172-46.287,23.855-46.287,37.301c0,6.012,4.848,10.925,10.925,10.925 c6.077,0,10.731-4.848,10.925-10.925c0.323-8.986,9.503-19.653,20.04-15.968c5.883,2.069,11.055,6.271,12.347,12.347 c1.875,8.986-3.168,15.709-9.051,18.489c-10.796,5.107-17.842,16.097-17.842,27.798c0,6.012,4.848,10.925,10.925,10.925 c6.077,0,10.925-4.848,10.925-10.925c0-3.491,2.069-6.594,5.301-8.145c16.097-7.564,24.76-25.083,21.075-42.667 C322.327,59.281,308.558,46.287,296.081,44.412z"/>
    </g>
  </g>
  <g transform="matrix(1, 0, 0, 1, 82.247354, 53.825489)"/>
  <g transform="matrix(1, 0, 0, 1, 82.247354, 53.825489)"/>
  <g transform="matrix(1, 0, 0, 1, 82.247354, 53.825489)"/>
  <g transform="matrix(1, 0, 0, 1, 82.247354, 53.825489)"/>
  <g transform="matrix(1, 0, 0, 1, 82.247354, 53.825489)"/>
  <g transform="matrix(1, 0, 0, 1, 82.247354, 53.825489)"/>
  <g transform="matrix(1, 0, 0, 1, 82.247354, 53.825489)"/>
  <g transform="matrix(1, 0, 0, 1, 82.247354, 53.825489)"/>
  <g transform="matrix(1, 0, 0, 1, 82.247354, 53.825489)"/>
  <g transform="matrix(1, 0, 0, 1, 82.247354, 53.825489)"/>
  <g transform="matrix(1, 0, 0, 1, 82.247354, 53.825489)"/>
  <g transform="matrix(1, 0, 0, 1, 82.247354, 53.825489)"/>
  <g transform="matrix(1, 0, 0, 1, 82.247354, 53.825489)"/>
  <g transform="matrix(1, 0, 0, 1, 82.247354, 53.825489)"/>
  <g transform="matrix(1, 0, 0, 1, 82.247354, 53.825489)"/>
</svg>