<?xml version="1.0" encoding="utf-8"?>
<svg version="1.1" id="Capa_1" x="0px" y="0px" width="462.406px" height="462.406px" viewBox="0 0 462.406 462.406" style="enable-background:new 0 0 462.406 462.406;" xmlns="http://www.w3.org/2000/svg">
  <defs>
    <linearGradient gradientUnits="userSpaceOnUse" x1="217.806" y1="-218.892" x2="217.806" y2="279.522" id="gradient-1" gradientTransform="matrix(-0.716123, 0.697973, -0.484537, -0.497134, 382.170738, 69.41588)">
      <stop offset="0" style="stop-color: rgb(85, 114, 218);"/>
      <stop offset="1" style="stop-color: rgb(253, 253, 253);"/>
    </linearGradient>
  </defs>
  <g transform="matrix(0.927755, 0, 0, 0.927756, 16.702961, 16.703011)">
    <path d="M 252.931 158.19 C 252.931 194.626 223.401 224.156 186.965 224.156 C 150.53 224.156 120.999 194.626 120.999 158.19 C 120.999 121.755 150.53 92.225 186.965 92.225 C 223.394 92.225 252.931 121.763 252.931 158.19 Z M 467.526 467.526 C 458.943 476.115 447.684 480.41 436.434 480.41 C 425.182 480.41 413.924 476.115 405.341 467.526 C 405.341 467.526 293.331 355.398 292.445 354.299 C 261.103 374.301 223.907 385.94 183.968 385.94 C 72.421 385.941 -18.004 295.515 -18.004 183.969 C -18.004 72.421 72.427 -18.004 183.969 -18.004 C 295.51 -18.004 385.941 72.421 385.941 183.968 C 385.941 223.906 374.301 261.103 354.3 292.445 C 355.399 293.323 467.527 405.341 467.527 405.341 C 484.705 422.509 484.705 450.352 467.526 467.526 Z M 343.862 183.968 C 343.862 95.662 272.274 24.074 183.969 24.074 C 95.663 24.074 24.075 95.662 24.075 183.968 C 24.075 234.929 47.947 280.292 85.086 309.574 C 89.916 273.777 120.518 246.152 157.641 246.152 L 216.277 246.152 C 251.877 246.152 281.524 271.541 288.164 305.19 C 322.247 275.866 343.862 232.453 343.862 183.968 Z" style="paint-order: stroke; stroke: rgb(56, 36, 230); stroke-width: 0px; fill: url(#gradient-1);"/>
  </g>
</svg>