<?xml version="1.0" encoding="utf-8"?>
<svg viewBox="0 0 500 500" preserveAspectRatio="xMidYMid slice" xmlns="http://www.w3.org/2000/svg" xmlns:bx="https://boxy-svg.com">
  <g transform="matrix(0.9375, 0, 0, 0.9375, 127.552483, -24.709658)">
    <g style="" transform="matrix(0.917184, 0, 0, 1, 20.99465, -2.828664)">
      <path style="fill: rgb(20, 79, 155);" d="M -13.868 178.945 L -106.731 178.945 C -115.24 178.945 -122.207 186.424 -122.207 195.644 L -122.207 396.037 C -122.207 405.253 -115.271 412.734 -106.731 412.734 L -13.868 412.734 C -5.327 412.734 1.608 405.253 1.608 396.037 L 1.608 195.644 C 1.608 186.424 -5.358 178.945 -13.868 178.945 Z"/>
      <path style="fill: rgb(0, 63, 132);" d="M -122.207 295.841 L -122.207 396.038 C -122.207 405.254 -115.271 412.735 -106.731 412.735 L -13.868 412.735 C -5.327 412.735 1.608 405.254 1.608 396.038 L 1.608 295.841 L -122.207 295.841 L -122.207 295.841 Z"/>
      <path style="fill: rgb(31, 99, 173);" d="M 116.87 80.509 C 111.616 77.676 105.36 78.282 100.662 82.087 L -29.345 178.945 L -29.345 412.737 L 100.662 509.593 C 110.864 517.849 125.425 509.995 125.425 496.233 L 125.425 95.448 C 125.425 89.11 122.123 83.345 116.87 80.509 Z"/>
      <path style="fill: rgb(0, 73, 153);" d="M -29.345 295.841 L -29.345 412.737 L 100.662 509.593 C 110.864 517.849 125.425 509.995 125.425 496.233 L 125.425 295.841 L -29.345 295.841 Z"/>
    </g>
    <path d="M 540.324 254.979 H 585.764 V 345.859 H 676.644 V 391.299 H 585.764 V 482.179 H 540.324 V 391.299 H 449.444 V 345.859 H 540.324 Z" style="stroke-linecap: round; stroke-linejoin: round; stroke-width: 16px; stroke: rgb(226, 0, 0); fill: rgb(110, 0, 0);" transform="matrix(0.707107, 0.707107, -0.707107, 0.707107, 127.898674, -365.551758)" bx:shape="cross 449.444 254.979 227.2 227.2 45.44 45.44 0.5 1@9f543121"/>
  </g>
</svg>