<?xml version="1.0" encoding="utf-8"?>
<svg viewBox="0 0 500 500" xmlns="http://www.w3.org/2000/svg">
  <defs>
    <linearGradient gradientUnits="userSpaceOnUse" x1="134.5" y1="235.6" x2="134.5" y2="337.3" id="gradient-4" gradientTransform="matrix(0.85484, -0.472679, 2.4894, 3.735858, -713.164935, -795.993822)">
      <stop offset="0" style="stop-color: rgba(249, 0, 0, 1)"/>
      <stop offset="1" style="stop-color: rgb(157, 0, 0);"/>
    </linearGradient>
    <linearGradient gradientUnits="userSpaceOnUse" x1="400.7" y1="109" x2="400.7" y2="250" id="gradient-6" gradientTransform="matrix(0.854734, 0.472838, -1.778169, 2.667289, 346.76398, -455.266654)">
      <stop offset="0" style="stop-color: rgba(249, 0, 0, 1)"/>
      <stop offset="1" style="stop-color: rgb(157, 0, 0);"/>
    </linearGradient>
    <linearGradient gradientUnits="userSpaceOnUse" x1="355.05" y1="235.6" x2="355.05" y2="337.4" id="gradient-7" gradientTransform="matrix(0.854448, 0.473265, -2.486954, 3.725862, 781.340909, -1021.527433)">
      <stop offset="0" style="stop-color: rgba(249, 0, 0, 1)"/>
      <stop offset="1" style="stop-color: rgb(81, 0, 0);"/>
    </linearGradient>
    <linearGradient gradientUnits="userSpaceOnUse" x1="88.9" y1="109" x2="88.9" y2="249.9" id="gradient-1" gradientTransform="matrix(0.85428, -0.473518, 1.814209, 2.715992, -281.979561, -230.501405)">
      <stop offset="0" style="stop-color: rgba(249, 0, 0, 1)"/>
      <stop offset="1" style="stop-color: rgb(157, 0, 0);"/>
    </linearGradient>
    <linearGradient gradientUnits="userSpaceOnUse" x1="244.8" y1="46.4" x2="244.8" y2="330.4" id="gradient-2" gradientTransform="matrix(-0.999991, 0.003824, -0.005751, -1.247563, 491.498273, 459.702523)">
      <stop offset="0" style=""/>
      <stop offset="1" style="stop-color: rgb(255, 0, 0);"/>
    </linearGradient>
  </defs>
  <g transform="matrix(0.953858, 0, 0, 1.047116, 16.588043, -15.254399)" style="">
    <g>
      <g>
        <path d="M179.6,235.6c-33.7,10.3-65.5,28.5-92.2,55.1l46.6,46.6c13.9-13.9,30.1-24.8,47.6-32.5L179.6,235.6z" style="fill: url(#gradient-4);"/>
        <path d="M175.8,109C111.3,122,49.9,153.4,0,203.3l46.6,46.6c37.5-37.5,83.1-61.9,131.2-73.7L175.8,109z" style="fill: url(#gradient-1);"/>
        <path d="M313.8,109l-2,67.3c48.1,11.8,93.7,36.2,131.2,73.7l46.6-46.6C439.8,153.4,378.3,122,313.8,109z" style="fill: url(#gradient-6);"/>
        <path d="M307.9,304.8c17.5,7.7,33.7,18.6,47.7,32.6l46.6-46.6c-26.6-26.6-58.5-44.9-92.2-55.2L307.9,304.8z" style="fill: url(#gradient-7);"/>
      </g>
      <circle cx="244.8" cy="403.2" r="40" style="fill: rgb(157, 0, 0);"/>
      <g>
        <path d="M260.6,330.4h-31.7c-8.3,0-15.1-6.6-15.3-14.9L206,62.2c-0.3-8.6,6.7-15.8,15.3-15.8h47c8.6,0,15.6,7.1,15.3,15.8 l-7.7,253.3C275.7,323.8,268.9,330.4,260.6,330.4z" style="stroke-width: 1.99903px; fill: url(#gradient-2);"/>
      </g>
    </g>
  </g>
</svg>