<?xml version="1.0" encoding="utf-8"?>
<svg viewBox="0 0 500 500" xmlns="http://www.w3.org/2000/svg">
  <defs>
    <linearGradient gradientUnits="userSpaceOnUse" x1="249.799" y1="29.7" x2="249.799" y2="490.5" id="gradient-0" gradientTransform="matrix(1, 0, 0, 0.691211, 0.879924, 48.23098)">
      <stop offset="0" style="stop-color: rgba(76, 255, 0, 1)"/>
      <stop offset="1" style="stop-color: rgb(24, 81, 0);"/>
    </linearGradient>
  </defs>
  <g style="" transform="matrix(0.885304, 0, 0, 0.837636, 28.462866, 39.920879)">
    <path d="M 381.512 291.2 C 346.356 251.066 299.583 228.964 249.801 228.964 C 200.019 228.964 153.242 251.066 118.09 291.2 L 71.606 238.44 C 119.165 184.143 182.45 154.238 249.804 154.238 C 317.155 154.238 380.442 184.141 427.999 238.44 L 381.512 291.2 Z M 249.797 104.423 C 328.811 104.423 403.066 139.485 458.884 203.15 L 505.347 150.364 C 437.125 72.554 346.369 29.7 249.797 29.7 C 153.224 29.7 62.472 72.554 -5.749 150.364 L 40.714 203.15 C 96.531 139.485 170.785 104.423 249.797 104.423 Z M 350.666 326.547 C 323.767 295.743 287.945 278.782 249.797 278.782 C 211.655 278.782 175.833 295.745 148.932 326.547 L 195.486 379.231 C 209.972 362.642 229.262 353.506 249.796 353.506 C 270.334 353.506 289.62 362.637 304.104 379.226 L 350.666 326.547 Z M 249.797 390.867 C 225.628 390.867 206.035 413.17 206.035 440.683 C 206.035 468.196 225.628 490.5 249.797 490.5 C 273.964 490.5 293.561 468.196 293.561 440.683 C 293.561 413.17 273.964 390.867 249.797 390.867 Z" style="fill: url(#gradient-0);"/>
  </g>
</svg>