<?xml version="1.0" encoding="utf-8"?>
<svg version="1.1" id="Layer_1" x="0px" y="0px" viewBox="0 0 512 512" style="enable-background:new 0 0 512 512;" xmlns="http://www.w3.org/2000/svg">
  <g transform="matrix(1.15723, 0, 0, 1.15723, -40.250763, -40.250763)">
    <circle style="fill: rgb(0, 157, 26);" cx="256" cy="256" r="211.908"/>
    <path style="fill:#4D4D4D;" d="M 255.996 406.842 C 172.823 406.842 105.155 339.176 105.155 256.001 C 105.155 172.826 172.821 105.16 255.996 105.16 C 296.288 105.16 334.168 120.85 362.658 149.342 C 366.294 152.978 366.294 158.873 362.658 162.508 C 359.022 166.144 353.127 166.144 349.492 162.508 C 324.519 137.534 291.316 123.781 255.997 123.781 C 183.091 123.781 123.776 183.094 123.776 256.002 C 123.776 328.91 183.089 388.223 255.997 388.223 C 328.905 388.223 388.218 328.91 388.218 256.002 C 388.218 250.86 392.386 246.692 397.528 246.692 C 402.67 246.692 406.838 250.86 406.838 256.002 C 406.837 339.174 339.169 406.842 255.996 406.842 Z"/>
    <path style="fill: rgb(210, 210, 52);" d="M 255.996 265.311 C 253.614 265.311 251.231 264.402 249.413 262.584 C 245.777 258.948 245.777 253.053 249.413 249.418 L 399.221 99.609 C 402.857 95.973 408.752 95.973 412.387 99.609 C 416.023 103.245 416.023 109.14 412.387 112.775 L 262.579 262.584 C 260.761 264.403 258.378 265.311 255.996 265.311 Z"/>
    <path style="fill:#F95428;" d="M 381.412 211.747 C 378.954 211.747 376.558 210.754 374.821 209.028 C 374.399 208.594 374.002 208.122 373.667 207.613 C 373.332 207.104 373.046 206.558 372.81 205.999 C 372.574 205.44 372.4 204.857 372.276 204.261 C 372.164 203.653 372.102 203.044 372.102 202.436 C 372.102 201.828 372.164 201.22 372.276 200.624 C 372.4 200.028 372.574 199.445 372.81 198.874 C 373.046 198.315 373.331 197.782 373.667 197.273 C 374.002 196.764 374.399 196.28 374.821 195.858 C 376.981 193.698 380.196 192.705 383.225 193.313 C 383.821 193.437 384.404 193.611 384.963 193.847 C 385.534 194.07 386.068 194.368 386.577 194.704 C 387.086 195.039 387.558 195.424 387.992 195.858 C 389.73 197.596 390.723 199.992 390.723 202.437 C 390.723 203.045 390.661 203.654 390.537 204.262 C 390.413 204.858 390.239 205.441 390.003 206 C 389.767 206.559 389.482 207.105 389.146 207.614 C 388.811 208.123 388.414 208.595 387.992 209.029 C 386.253 210.753 383.857 211.747 381.412 211.747 Z"/>
    <path style="fill: rgba(6, 6, 6, 0.34);" d="M 256 477.218 C 134.02 477.218 34.782 377.98 34.782 256 C 34.782 134.02 134.02 34.782 256 34.782 C 377.98 34.782 477.218 134.02 477.218 256 C 477.218 377.98 377.98 477.218 256 477.218 Z M 256 53.402 C 144.288 53.402 53.402 144.288 53.402 256 C 53.402 367.712 144.288 458.598 256 458.598 C 367.712 458.598 458.598 367.712 458.598 256 C 458.598 144.288 367.712 53.402 256 53.402 Z"/>
    <path style="fill:#4D4D4D;" d="M255.996,322.598c-36.721,0-66.595-29.875-66.595-66.596s29.874-66.595,66.595-66.595 c17.79,0,34.514,6.928,47.092,19.508c3.636,3.636,3.636,9.531,0,13.166c-3.636,3.636-9.531,3.636-13.166,0 c-9.062-9.063-21.11-14.053-33.927-14.053c-26.454,0-47.975,21.521-47.975,47.975s21.521,47.976,47.975,47.976 s47.976-21.522,47.976-47.976c0-5.142,4.168-9.31,9.31-9.31c5.142,0,9.31,4.168,9.31,9.31 C322.591,292.722,292.717,322.598,255.996,322.598z"/>
    <path style="fill:#F95428;" d="M 372.186 223.129 C 369.728 223.129 367.332 222.136 365.595 220.41 C 365.173 219.976 364.776 219.504 364.441 218.995 C 364.106 218.486 363.82 217.94 363.584 217.381 C 363.348 216.822 363.174 216.239 363.05 215.643 C 362.938 215.035 362.876 214.426 362.876 213.818 C 362.876 213.21 362.938 212.602 363.05 212.006 C 363.174 211.41 363.348 210.827 363.584 210.256 C 363.82 209.697 364.105 209.164 364.441 208.655 C 364.776 208.146 365.173 207.662 365.595 207.24 C 367.755 205.08 370.97 204.087 373.999 204.695 C 374.595 204.819 375.178 204.993 375.737 205.229 C 376.308 205.452 376.842 205.75 377.351 206.086 C 377.86 206.421 378.332 206.806 378.766 207.24 C 380.504 208.978 381.497 211.374 381.497 213.819 C 381.497 214.427 381.435 215.036 381.311 215.644 C 381.187 216.24 381.013 216.823 380.777 217.382 C 380.541 217.941 380.256 218.487 379.92 218.996 C 379.585 219.505 379.188 219.977 378.766 220.411 C 377.027 222.135 374.631 223.129 372.186 223.129 Z"/>
    <path style="fill: rgb(75, 249, 40);" d="M 395.043 192.654 C 392.585 192.654 390.189 191.661 388.452 189.935 C 388.03 189.501 387.633 189.029 387.298 188.52 C 386.963 188.011 386.677 187.465 386.441 186.906 C 386.205 186.347 386.031 185.764 385.907 185.168 C 385.795 184.56 385.733 183.951 385.733 183.343 C 385.733 182.735 385.795 182.127 385.907 181.531 C 386.031 180.935 386.205 180.352 386.441 179.781 C 386.677 179.222 386.962 178.689 387.298 178.18 C 387.633 177.671 388.03 177.187 388.452 176.765 C 390.612 174.605 393.827 173.612 396.856 174.22 C 397.452 174.344 398.035 174.518 398.594 174.754 C 399.165 174.977 399.699 175.275 400.208 175.611 C 400.717 175.946 401.189 176.331 401.623 176.765 C 403.361 178.503 404.354 180.899 404.354 183.344 C 404.354 183.952 404.292 184.561 404.168 185.169 C 404.044 185.765 403.87 186.348 403.634 186.907 C 403.398 187.466 403.113 188.012 402.777 188.521 C 402.442 189.03 402.045 189.502 401.623 189.936 C 399.884 191.66 397.488 192.654 395.043 192.654 Z"/>
    <path style="fill: rgb(75, 249, 40);" d="M 395.043 192.654 C 392.585 192.654 390.189 191.661 388.452 189.935 C 388.03 189.501 387.633 189.029 387.298 188.52 C 386.963 188.011 386.677 187.465 386.441 186.906 C 386.205 186.347 386.031 185.764 385.907 185.168 C 385.795 184.56 385.733 183.951 385.733 183.343 C 385.733 182.735 385.795 182.127 385.907 181.531 C 386.031 180.935 386.205 180.352 386.441 179.781 C 386.677 179.222 386.962 178.689 387.298 178.18 C 387.633 177.671 388.03 177.187 388.452 176.765 C 390.612 174.605 393.827 173.612 396.856 174.22 C 397.452 174.344 398.035 174.518 398.594 174.754 C 399.165 174.977 399.699 175.275 400.208 175.611 C 400.717 175.946 401.189 176.331 401.623 176.765 C 403.361 178.503 404.354 180.899 404.354 183.344 C 404.354 183.952 404.292 184.561 404.168 185.169 C 404.044 185.765 403.87 186.348 403.634 186.907 C 403.398 187.466 403.113 188.012 402.777 188.521 C 402.442 189.03 402.045 189.502 401.623 189.936 C 399.884 191.66 397.488 192.654 395.043 192.654 Z" transform="matrix(1, 0, 0, 1, 25.03314, 13.060962)"/>
    <path style="fill: rgb(75, 249, 40);" d="M 395.043 192.654 C 392.585 192.654 390.189 191.661 388.452 189.935 C 388.03 189.501 387.633 189.029 387.298 188.52 C 386.963 188.011 386.677 187.465 386.441 186.906 C 386.205 186.347 386.031 185.764 385.907 185.168 C 385.795 184.56 385.733 183.951 385.733 183.343 C 385.733 182.735 385.795 182.127 385.907 181.531 C 386.031 180.935 386.205 180.352 386.441 179.781 C 386.677 179.222 386.962 178.689 387.298 178.18 C 387.633 177.671 388.03 177.187 388.452 176.765 C 390.612 174.605 393.827 173.612 396.856 174.22 C 397.452 174.344 398.035 174.518 398.594 174.754 C 399.165 174.977 399.699 175.275 400.208 175.611 C 400.717 175.946 401.189 176.331 401.623 176.765 C 403.361 178.503 404.354 180.899 404.354 183.344 C 404.354 183.952 404.292 184.561 404.168 185.169 C 404.044 185.765 403.87 186.348 403.634 186.907 C 403.398 187.466 403.113 188.012 402.777 188.521 C 402.442 189.03 402.045 189.502 401.623 189.936 C 399.884 191.66 397.488 192.654 395.043 192.654 Z" transform="matrix(1, 0, 0, 1, 25.03314, 13.060962)"/>
    <path style="fill: rgb(75, 249, 40);" d="M 401.573 201.362 C 399.115 201.362 396.719 200.369 394.982 198.643 C 394.56 198.209 394.163 197.737 393.828 197.228 C 393.493 196.719 393.207 196.173 392.971 195.614 C 392.735 195.055 392.561 194.472 392.437 193.876 C 392.325 193.268 392.263 192.659 392.263 192.051 C 392.263 191.443 392.325 190.835 392.437 190.239 C 392.561 189.643 392.735 189.06 392.971 188.489 C 393.207 187.93 393.492 187.397 393.828 186.888 C 394.163 186.379 394.56 185.895 394.982 185.473 C 397.142 183.313 400.357 182.32 403.386 182.928 C 403.982 183.052 404.565 183.226 405.124 183.462 C 405.695 183.685 406.229 183.983 406.738 184.319 C 407.247 184.654 407.719 185.039 408.153 185.473 C 409.891 187.211 410.884 189.607 410.884 192.052 C 410.884 192.66 410.822 193.269 410.698 193.877 C 410.574 194.473 410.4 195.056 410.164 195.615 C 409.928 196.174 409.643 196.72 409.307 197.229 C 408.972 197.738 408.575 198.21 408.153 198.644 C 406.414 200.368 404.018 201.362 401.573 201.362 Z"/>
    <path style="fill: rgb(75, 249, 40);" d="M 395.043 192.654 C 392.585 192.654 390.189 191.661 388.452 189.935 C 388.03 189.501 387.633 189.029 387.298 188.52 C 386.963 188.011 386.677 187.465 386.441 186.906 C 386.205 186.347 386.031 185.764 385.907 185.168 C 385.795 184.56 385.733 183.951 385.733 183.343 C 385.733 182.735 385.795 182.127 385.907 181.531 C 386.031 180.935 386.205 180.352 386.441 179.781 C 386.677 179.222 386.962 178.689 387.298 178.18 C 387.633 177.671 388.03 177.187 388.452 176.765 C 390.612 174.605 393.827 173.612 396.856 174.22 C 397.452 174.344 398.035 174.518 398.594 174.754 C 399.165 174.977 399.699 175.275 400.208 175.611 C 400.717 175.946 401.189 176.331 401.623 176.765 C 403.361 178.503 404.354 180.899 404.354 183.344 C 404.354 183.952 404.292 184.561 404.168 185.169 C 404.044 185.765 403.87 186.348 403.634 186.907 C 403.398 187.466 403.113 188.012 402.777 188.521 C 402.442 189.03 402.045 189.502 401.623 189.936 C 399.884 191.66 397.488 192.654 395.043 192.654 Z" transform="matrix(1, 0, 0, 1, 23.944737, 14.149365)"/>
    <path style="fill: rgb(249, 249, 40);" d="M 386.88 201.906 C 384.422 201.906 382.026 200.913 380.289 199.187 C 379.867 198.753 379.47 198.281 379.135 197.772 C 378.8 197.263 378.514 196.717 378.278 196.158 C 378.042 195.599 377.868 195.016 377.744 194.42 C 377.632 193.812 377.57 193.203 377.57 192.595 C 377.57 191.987 377.632 191.379 377.744 190.783 C 377.868 190.187 378.042 189.604 378.278 189.033 C 378.514 188.474 378.799 187.941 379.135 187.432 C 379.47 186.923 379.867 186.439 380.289 186.017 C 382.449 183.857 385.664 182.864 388.693 183.472 C 389.289 183.596 389.872 183.77 390.431 184.006 C 391.002 184.229 391.536 184.527 392.045 184.863 C 392.554 185.198 393.026 185.583 393.46 186.017 C 395.198 187.755 396.191 190.151 396.191 192.596 C 396.191 193.204 396.129 193.813 396.005 194.421 C 395.881 195.017 395.707 195.6 395.471 196.159 C 395.235 196.718 394.95 197.264 394.614 197.773 C 394.279 198.282 393.882 198.754 393.46 199.188 C 391.721 200.912 389.325 201.906 386.88 201.906 Z"/>
    <path style="fill: rgb(249, 239, 40);" d="M 392.866 223.129 C 390.408 223.129 388.012 222.136 386.275 220.41 C 385.853 219.976 385.456 219.504 385.121 218.995 C 384.786 218.486 384.5 217.94 384.264 217.381 C 384.028 216.822 383.854 216.239 383.73 215.643 C 383.618 215.035 383.556 214.426 383.556 213.818 C 383.556 213.21 383.618 212.602 383.73 212.006 C 383.854 211.41 384.028 210.827 384.264 210.256 C 384.5 209.697 384.785 209.164 385.121 208.655 C 385.456 208.146 385.853 207.662 386.275 207.24 C 388.435 205.08 391.65 204.087 394.679 204.695 C 395.275 204.819 395.858 204.993 396.417 205.229 C 396.988 205.452 397.522 205.75 398.031 206.086 C 398.54 206.421 399.012 206.806 399.446 207.24 C 401.184 208.978 402.177 211.374 402.177 213.819 C 402.177 214.427 402.115 215.036 401.991 215.644 C 401.867 216.24 401.693 216.823 401.457 217.382 C 401.221 217.941 400.936 218.487 400.6 218.996 C 400.265 219.505 399.868 219.977 399.446 220.411 C 397.707 222.135 395.311 223.129 392.866 223.129 Z"/>
    <path style="fill: rgb(255, 255, 255);" d="M 424.974 188.845 C 422.516 188.845 420.12 187.852 418.383 186.126 C 417.961 185.692 417.564 185.22 417.229 184.711 C 416.894 184.202 416.608 183.656 416.372 183.097 C 416.136 182.538 415.962 181.955 415.838 181.359 C 415.726 180.751 415.664 180.142 415.664 179.534 C 415.664 178.926 415.726 178.318 415.838 177.722 C 415.962 177.126 416.136 176.543 416.372 175.972 C 416.608 175.413 416.893 174.88 417.229 174.371 C 417.564 173.862 417.961 173.378 418.383 172.956 C 420.543 170.796 423.758 169.803 426.787 170.411 C 427.383 170.535 427.966 170.709 428.525 170.945 C 429.096 171.168 429.63 171.466 430.139 171.802 C 430.648 172.137 431.12 172.522 431.554 172.956 C 433.292 174.694 434.285 177.09 434.285 179.535 C 434.285 180.143 434.223 180.752 434.099 181.36 C 433.975 181.956 433.801 182.539 433.565 183.098 C 433.329 183.657 433.044 184.203 432.708 184.712 C 432.373 185.221 431.976 185.693 431.554 186.127 C 429.815 187.851 427.419 188.845 424.974 188.845 Z"/>
    <path style="fill: rgb(255, 255, 255);" d="M 411.913 193.743 C 409.455 193.743 407.059 192.75 405.322 191.024 C 404.9 190.59 404.503 190.118 404.168 189.609 C 403.833 189.1 403.547 188.554 403.311 187.995 C 403.075 187.436 402.901 186.853 402.777 186.257 C 402.665 185.649 402.603 185.04 402.603 184.432 C 402.603 183.824 402.665 183.216 402.777 182.62 C 402.901 182.024 403.075 181.441 403.311 180.87 C 403.547 180.311 403.832 179.778 404.168 179.269 C 404.503 178.76 404.9 178.276 405.322 177.854 C 407.482 175.694 410.697 174.701 413.726 175.309 C 414.322 175.433 414.905 175.607 415.464 175.843 C 416.035 176.066 416.569 176.364 417.078 176.7 C 417.587 177.035 418.059 177.42 418.493 177.854 C 420.231 179.592 421.224 181.988 421.224 184.433 C 421.224 185.041 421.162 185.65 421.038 186.258 C 420.914 186.854 420.74 187.437 420.504 187.996 C 420.268 188.555 419.983 189.101 419.647 189.61 C 419.312 190.119 418.915 190.591 418.493 191.025 C 416.754 192.749 414.358 193.743 411.913 193.743 Z"/>
    <path style="fill: rgb(249, 249, 40);" d="M 403.206 256.598 C 400.748 256.598 398.352 255.605 396.615 253.879 C 396.193 253.445 395.796 252.973 395.461 252.464 C 395.126 251.955 394.84 251.409 394.604 250.85 C 394.368 250.291 394.194 249.708 394.07 249.112 C 393.958 248.504 393.896 247.895 393.896 247.287 C 393.896 246.679 393.958 246.071 394.07 245.475 C 394.194 244.879 394.368 244.296 394.604 243.725 C 394.84 243.166 395.125 242.633 395.461 242.124 C 395.796 241.615 396.193 241.131 396.615 240.709 C 398.775 238.549 401.99 237.556 405.019 238.164 C 405.615 238.288 406.198 238.462 406.757 238.698 C 407.328 238.921 407.862 239.219 408.371 239.555 C 408.88 239.89 409.352 240.275 409.786 240.709 C 411.524 242.447 412.517 244.843 412.517 247.288 C 412.517 247.896 412.455 248.505 412.331 249.113 C 412.207 249.709 412.033 250.292 411.797 250.851 C 411.561 251.41 411.276 251.956 410.94 252.465 C 410.605 252.974 410.208 253.446 409.786 253.88 C 408.047 255.604 405.651 256.598 403.206 256.598 Z"/>
    <path style="fill: rgb(249, 249, 40);" d="M 399.94 240.272 C 397.482 240.272 395.086 239.279 393.349 237.553 C 392.927 237.119 392.53 236.647 392.195 236.138 C 391.86 235.629 391.574 235.083 391.338 234.524 C 391.102 233.965 390.928 233.382 390.804 232.786 C 390.692 232.178 390.63 231.569 390.63 230.961 C 390.63 230.353 390.692 229.745 390.804 229.149 C 390.928 228.553 391.102 227.97 391.338 227.399 C 391.574 226.84 391.859 226.307 392.195 225.798 C 392.53 225.289 392.927 224.805 393.349 224.383 C 395.509 222.223 398.724 221.23 401.753 221.838 C 402.349 221.962 402.932 222.136 403.491 222.372 C 404.062 222.595 404.596 222.893 405.105 223.229 C 405.614 223.564 406.086 223.949 406.52 224.383 C 408.258 226.121 409.251 228.517 409.251 230.962 C 409.251 231.57 409.189 232.179 409.065 232.787 C 408.941 233.383 408.767 233.966 408.531 234.525 C 408.295 235.084 408.01 235.63 407.674 236.139 C 407.339 236.648 406.942 237.12 406.52 237.554 C 404.781 239.278 402.385 240.272 399.94 240.272 Z"/>
    <path style="fill: rgb(249, 249, 40);" d="M 399.941 228.299 C 397.483 228.299 395.087 227.306 393.35 225.58 C 392.928 225.146 392.531 224.674 392.196 224.165 C 391.861 223.656 391.575 223.11 391.339 222.551 C 391.103 221.992 390.929 221.409 390.805 220.813 C 390.693 220.205 390.631 219.596 390.631 218.988 C 390.631 218.38 390.693 217.772 390.805 217.176 C 390.929 216.58 391.103 215.997 391.339 215.426 C 391.575 214.867 391.86 214.334 392.196 213.825 C 392.531 213.316 392.928 212.832 393.35 212.41 C 395.51 210.25 398.725 209.257 401.754 209.865 C 402.35 209.989 402.933 210.163 403.492 210.399 C 404.063 210.622 404.597 210.92 405.106 211.256 C 405.615 211.591 406.087 211.976 406.521 212.41 C 408.259 214.148 409.252 216.544 409.252 218.989 C 409.252 219.597 409.19 220.206 409.066 220.814 C 408.942 221.41 408.768 221.993 408.532 222.552 C 408.296 223.111 408.011 223.657 407.675 224.166 C 407.34 224.675 406.943 225.147 406.521 225.581 C 404.782 227.305 402.386 228.299 399.941 228.299 Z"/>
    <path style="fill:#F95428;" d="M 372.186 223.129 C 369.728 223.129 367.332 222.136 365.595 220.41 C 365.173 219.976 364.776 219.504 364.441 218.995 C 364.106 218.486 363.82 217.94 363.584 217.381 C 363.348 216.822 363.174 216.239 363.05 215.643 C 362.938 215.035 362.876 214.426 362.876 213.818 C 362.876 213.21 362.938 212.602 363.05 212.006 C 363.174 211.41 363.348 210.827 363.584 210.256 C 363.82 209.697 364.105 209.164 364.441 208.655 C 364.776 208.146 365.173 207.662 365.595 207.24 C 367.755 205.08 370.97 204.087 373.999 204.695 C 374.595 204.819 375.178 204.993 375.737 205.229 C 376.308 205.452 376.842 205.75 377.351 206.086 C 377.86 206.421 378.332 206.806 378.766 207.24 C 380.504 208.978 381.497 211.374 381.497 213.819 C 381.497 214.427 381.435 215.036 381.311 215.644 C 381.187 216.24 381.013 216.823 380.777 217.382 C 380.541 217.941 380.256 218.487 379.92 218.996 C 379.585 219.505 379.188 219.977 378.766 220.411 C 377.027 222.135 374.631 223.129 372.186 223.129 Z" transform="matrix(1, 0, 0, 1, 5.98662, 1.633016)"/>
    <path style="fill:#F95428;" d="M 381.982 232.925 C 379.524 232.925 377.128 231.932 375.391 230.206 C 374.969 229.772 374.572 229.3 374.237 228.791 C 373.902 228.282 373.616 227.736 373.38 227.177 C 373.144 226.618 372.97 226.035 372.846 225.439 C 372.734 224.831 372.672 224.222 372.672 223.614 C 372.672 223.006 372.734 222.398 372.846 221.802 C 372.97 221.206 373.144 220.623 373.38 220.052 C 373.616 219.493 373.901 218.96 374.237 218.451 C 374.572 217.942 374.969 217.458 375.391 217.036 C 377.551 214.876 380.766 213.883 383.795 214.491 C 384.391 214.615 384.974 214.789 385.533 215.025 C 386.104 215.248 386.638 215.546 387.147 215.882 C 387.656 216.217 388.128 216.602 388.562 217.036 C 390.3 218.774 391.293 221.17 391.293 223.615 C 391.293 224.223 391.231 224.832 391.107 225.44 C 390.983 226.036 390.809 226.619 390.573 227.178 C 390.337 227.737 390.052 228.283 389.716 228.792 C 389.381 229.301 388.984 229.773 388.562 230.207 C 386.823 231.931 384.427 232.925 381.982 232.925 Z"/>
    <path style="fill:#F95428;" d="M 382.526 234.558 C 380.068 234.558 377.672 233.565 375.935 231.839 C 375.513 231.405 375.116 230.933 374.781 230.424 C 374.446 229.915 374.16 229.369 373.924 228.81 C 373.688 228.251 373.514 227.668 373.39 227.072 C 373.278 226.464 373.216 225.855 373.216 225.247 C 373.216 224.639 373.278 224.031 373.39 223.435 C 373.514 222.839 373.688 222.256 373.924 221.685 C 374.16 221.126 374.445 220.593 374.781 220.084 C 375.116 219.575 375.513 219.091 375.935 218.669 C 378.095 216.509 381.31 215.516 384.339 216.124 C 384.935 216.248 385.518 216.422 386.077 216.658 C 386.648 216.881 387.182 217.179 387.691 217.515 C 388.2 217.85 388.672 218.235 389.106 218.669 C 390.844 220.407 391.837 222.803 391.837 225.248 C 391.837 225.856 391.775 226.465 391.651 227.073 C 391.527 227.669 391.353 228.252 391.117 228.811 C 390.881 229.37 390.596 229.916 390.26 230.425 C 389.925 230.934 389.528 231.406 389.106 231.84 C 387.367 233.564 384.971 234.558 382.526 234.558 Z"/>
    <path style="fill:#F95428;" d="M 372.186 223.129 C 369.728 223.129 367.332 222.136 365.595 220.41 C 365.173 219.976 364.776 219.504 364.441 218.995 C 364.106 218.486 363.82 217.94 363.584 217.381 C 363.348 216.822 363.174 216.239 363.05 215.643 C 362.938 215.035 362.876 214.426 362.876 213.818 C 362.876 213.21 362.938 212.602 363.05 212.006 C 363.174 211.41 363.348 210.827 363.584 210.256 C 363.82 209.697 364.105 209.164 364.441 208.655 C 364.776 208.146 365.173 207.662 365.595 207.24 C 367.755 205.08 370.97 204.087 373.999 204.695 C 374.595 204.819 375.178 204.993 375.737 205.229 C 376.308 205.452 376.842 205.75 377.351 206.086 C 377.86 206.421 378.332 206.806 378.766 207.24 C 380.504 208.978 381.497 211.374 381.497 213.819 C 381.497 214.427 381.435 215.036 381.311 215.644 C 381.187 216.24 381.013 216.823 380.777 217.382 C 380.541 217.941 380.256 218.487 379.92 218.996 C 379.585 219.505 379.188 219.977 378.766 220.411 C 377.027 222.135 374.631 223.129 372.186 223.129 Z" transform="matrix(1, 0, 0, 1, 13.06124, 12.517046)"/>
    <path style="fill:#F95428;" d="M 372.186 223.129 C 369.728 223.129 367.332 222.136 365.595 220.41 C 365.173 219.976 364.776 219.504 364.441 218.995 C 364.106 218.486 363.82 217.94 363.584 217.381 C 363.348 216.822 363.174 216.239 363.05 215.643 C 362.938 215.035 362.876 214.426 362.876 213.818 C 362.876 213.21 362.938 212.602 363.05 212.006 C 363.174 211.41 363.348 210.827 363.584 210.256 C 363.82 209.697 364.105 209.164 364.441 208.655 C 364.776 208.146 365.173 207.662 365.595 207.24 C 367.755 205.08 370.97 204.087 373.999 204.695 C 374.595 204.819 375.178 204.993 375.737 205.229 C 376.308 205.452 376.842 205.75 377.351 206.086 C 377.86 206.421 378.332 206.806 378.766 207.24 C 380.504 208.978 381.497 211.374 381.497 213.819 C 381.497 214.427 381.435 215.036 381.311 215.644 C 381.187 216.24 381.013 216.823 380.777 217.382 C 380.541 217.941 380.256 218.487 379.92 218.996 C 379.585 219.505 379.188 219.977 378.766 220.411 C 377.027 222.135 374.631 223.129 372.186 223.129 Z" transform="matrix(1, 0, 0, 1, 13.06124, 15.238053)"/>
    <path style="fill:#F95428;" d="M 388.512 248.707 C 386.054 248.707 383.658 247.714 381.921 245.988 C 381.499 245.554 381.102 245.082 380.767 244.573 C 380.432 244.064 380.146 243.518 379.91 242.959 C 379.674 242.4 379.5 241.817 379.376 241.221 C 379.264 240.613 379.202 240.004 379.202 239.396 C 379.202 238.788 379.264 238.18 379.376 237.584 C 379.5 236.988 379.674 236.405 379.91 235.834 C 380.146 235.275 380.431 234.742 380.767 234.233 C 381.102 233.724 381.499 233.24 381.921 232.818 C 384.081 230.658 387.296 229.665 390.325 230.273 C 390.921 230.397 391.504 230.571 392.063 230.807 C 392.634 231.03 393.168 231.328 393.677 231.664 C 394.186 231.999 394.658 232.384 395.092 232.818 C 396.83 234.556 397.823 236.952 397.823 239.397 C 397.823 240.005 397.761 240.614 397.637 241.222 C 397.513 241.818 397.339 242.401 397.103 242.96 C 396.867 243.519 396.582 244.065 396.246 244.574 C 395.911 245.083 395.514 245.555 395.092 245.989 C 393.353 247.713 390.957 248.707 388.512 248.707 Z"/>
    <path style="fill: rgb(75, 249, 40);" d="M 403.75 207.348 C 401.292 207.348 398.896 206.355 397.159 204.629 C 396.737 204.195 396.34 203.723 396.005 203.214 C 395.67 202.705 395.384 202.159 395.148 201.6 C 394.912 201.041 394.738 200.458 394.614 199.862 C 394.502 199.254 394.44 198.645 394.44 198.037 C 394.44 197.429 394.502 196.821 394.614 196.225 C 394.738 195.629 394.912 195.046 395.148 194.475 C 395.384 193.916 395.669 193.383 396.005 192.874 C 396.34 192.365 396.737 191.881 397.159 191.459 C 399.319 189.299 402.534 188.306 405.563 188.914 C 406.159 189.038 406.742 189.212 407.301 189.448 C 407.872 189.671 408.406 189.969 408.915 190.305 C 409.424 190.64 409.896 191.025 410.33 191.459 C 412.068 193.197 413.061 195.593 413.061 198.038 C 413.061 198.646 412.999 199.255 412.875 199.863 C 412.751 200.459 412.577 201.042 412.341 201.601 C 412.105 202.16 411.82 202.706 411.484 203.215 C 411.149 203.724 410.752 204.196 410.33 204.63 C 408.591 206.354 406.195 207.348 403.75 207.348 Z" transform="matrix(1, 0, 0, 1, 19.047147, 4.89738)"/>
    <path style="fill: rgb(75, 249, 40);" d="M 418.444 220.953 C 415.986 220.953 413.59 219.96 411.853 218.234 C 411.431 217.8 411.034 217.328 410.699 216.819 C 410.364 216.31 410.078 215.764 409.842 215.205 C 409.606 214.646 409.432 214.063 409.308 213.467 C 409.196 212.859 409.134 212.25 409.134 211.642 C 409.134 211.034 409.196 210.426 409.308 209.83 C 409.432 209.234 409.606 208.651 409.842 208.08 C 410.078 207.521 410.363 206.988 410.699 206.479 C 411.034 205.97 411.431 205.486 411.853 205.064 C 414.013 202.904 417.228 201.911 420.257 202.519 C 420.853 202.643 421.436 202.817 421.995 203.053 C 422.566 203.276 423.1 203.574 423.609 203.91 C 424.118 204.245 424.59 204.63 425.024 205.064 C 426.762 206.802 427.755 209.198 427.755 211.643 C 427.755 212.251 427.693 212.86 427.569 213.468 C 427.445 214.064 427.271 214.647 427.035 215.206 C 426.799 215.765 426.514 216.311 426.178 216.82 C 425.843 217.329 425.446 217.801 425.024 218.235 C 423.285 219.959 420.889 220.953 418.444 220.953 Z"/>
    <path style="fill: rgb(75, 249, 40);" d="M 411.369 234.013 C 408.911 234.013 406.515 233.02 404.778 231.294 C 404.356 230.86 403.959 230.388 403.624 229.879 C 403.289 229.37 403.003 228.824 402.767 228.265 C 402.531 227.706 402.357 227.123 402.233 226.527 C 402.121 225.919 402.059 225.31 402.059 224.702 C 402.059 224.094 402.121 223.486 402.233 222.89 C 402.357 222.294 402.531 221.711 402.767 221.14 C 403.003 220.581 403.288 220.048 403.624 219.539 C 403.959 219.03 404.356 218.546 404.778 218.124 C 406.938 215.964 410.153 214.971 413.182 215.579 C 413.778 215.703 414.361 215.877 414.92 216.113 C 415.491 216.336 416.025 216.634 416.534 216.97 C 417.043 217.305 417.515 217.69 417.949 218.124 C 419.687 219.862 420.68 222.258 420.68 224.703 C 420.68 225.311 420.618 225.92 420.494 226.528 C 420.37 227.124 420.196 227.707 419.96 228.266 C 419.724 228.825 419.439 229.371 419.103 229.88 C 418.768 230.389 418.371 230.861 417.949 231.295 C 416.21 233.019 413.814 234.013 411.369 234.013 Z"/>
    <path style="fill: rgb(75, 249, 40);" d="M 405.927 217.687 C 403.469 217.687 401.073 216.694 399.336 214.968 C 398.914 214.534 398.517 214.062 398.182 213.553 C 397.847 213.044 397.561 212.498 397.325 211.939 C 397.089 211.38 396.915 210.797 396.791 210.201 C 396.679 209.593 396.617 208.984 396.617 208.376 C 396.617 207.768 396.679 207.16 396.791 206.564 C 396.915 205.968 397.089 205.385 397.325 204.814 C 397.561 204.255 397.846 203.722 398.182 203.213 C 398.517 202.704 398.914 202.22 399.336 201.798 C 401.496 199.638 404.711 198.645 407.74 199.253 C 408.336 199.377 408.919 199.551 409.478 199.787 C 410.049 200.01 410.583 200.308 411.092 200.644 C 411.601 200.979 412.073 201.364 412.507 201.798 C 414.245 203.536 415.238 205.932 415.238 208.377 C 415.238 208.985 415.176 209.594 415.052 210.202 C 414.928 210.798 414.754 211.381 414.518 211.94 C 414.282 212.499 413.997 213.045 413.661 213.554 C 413.326 214.063 412.929 214.535 412.507 214.969 C 410.768 216.693 408.372 217.687 405.927 217.687 Z"/>
    <path style="fill: rgb(255, 255, 255);" d="M 425.518 204.627 C 423.06 204.627 420.664 203.634 418.927 201.908 C 418.505 201.474 418.108 201.002 417.773 200.493 C 417.438 199.984 417.152 199.438 416.916 198.879 C 416.68 198.32 416.506 197.737 416.382 197.141 C 416.27 196.533 416.208 195.924 416.208 195.316 C 416.208 194.708 416.27 194.1 416.382 193.504 C 416.506 192.908 416.68 192.325 416.916 191.754 C 417.152 191.195 417.437 190.662 417.773 190.153 C 418.108 189.644 418.505 189.16 418.927 188.738 C 421.087 186.578 424.302 185.585 427.331 186.193 C 427.927 186.317 428.51 186.491 429.069 186.727 C 429.64 186.95 430.174 187.248 430.683 187.584 C 431.192 187.919 431.664 188.304 432.098 188.738 C 433.836 190.476 434.829 192.872 434.829 195.317 C 434.829 195.925 434.767 196.534 434.643 197.142 C 434.519 197.738 434.345 198.321 434.109 198.88 C 433.873 199.439 433.588 199.985 433.252 200.494 C 432.917 201.003 432.52 201.475 432.098 201.909 C 430.359 203.633 427.963 204.627 425.518 204.627 Z"/>
    <path style="fill: rgb(249, 249, 40);" d="M 389.601 212.245 C 387.143 212.245 384.747 211.252 383.01 209.526 C 382.588 209.092 382.191 208.62 381.856 208.111 C 381.521 207.602 381.235 207.056 380.999 206.497 C 380.763 205.938 380.589 205.355 380.465 204.759 C 380.353 204.151 380.291 203.542 380.291 202.934 C 380.291 202.326 380.353 201.718 380.465 201.122 C 380.589 200.526 380.763 199.943 380.999 199.372 C 381.235 198.813 381.52 198.28 381.856 197.771 C 382.191 197.262 382.588 196.778 383.01 196.356 C 385.17 194.196 388.385 193.203 391.414 193.811 C 392.01 193.935 392.593 194.109 393.152 194.345 C 393.723 194.568 394.257 194.866 394.766 195.202 C 395.275 195.537 395.747 195.922 396.181 196.356 C 397.919 198.094 398.912 200.49 398.912 202.935 C 398.912 203.543 398.85 204.152 398.726 204.76 C 398.602 205.356 398.428 205.939 398.192 206.498 C 397.956 207.057 397.671 207.603 397.335 208.112 C 397 208.621 396.603 209.093 396.181 209.527 C 394.442 211.251 392.046 212.245 389.601 212.245 Z"/>
    <path style="fill: rgb(75, 249, 40);" d="M 408.104 211.157 C 405.646 211.157 403.25 210.164 401.513 208.438 C 401.091 208.004 400.694 207.532 400.359 207.023 C 400.024 206.514 399.738 205.968 399.502 205.409 C 399.266 204.85 399.092 204.267 398.968 203.671 C 398.856 203.063 398.794 202.454 398.794 201.846 C 398.794 201.238 398.856 200.63 398.968 200.034 C 399.092 199.438 399.266 198.855 399.502 198.284 C 399.738 197.725 400.023 197.192 400.359 196.683 C 400.694 196.174 401.091 195.69 401.513 195.268 C 403.673 193.108 406.888 192.115 409.917 192.723 C 410.513 192.847 411.096 193.021 411.655 193.257 C 412.226 193.48 412.76 193.778 413.269 194.114 C 413.778 194.449 414.25 194.834 414.684 195.268 C 416.422 197.006 417.415 199.402 417.415 201.847 C 417.415 202.455 417.353 203.064 417.229 203.672 C 417.105 204.268 416.931 204.851 416.695 205.41 C 416.459 205.969 416.174 206.515 415.838 207.024 C 415.503 207.533 415.106 208.005 414.684 208.439 C 412.945 210.163 410.549 211.157 408.104 211.157 Z"/>
    <path style="fill:#F95428;" d="M 389.057 265.033 C 386.599 265.033 384.203 264.04 382.466 262.314 C 382.044 261.88 381.647 261.408 381.312 260.899 C 380.977 260.39 380.691 259.844 380.455 259.285 C 380.219 258.726 380.045 258.143 379.921 257.547 C 379.809 256.939 379.747 256.33 379.747 255.722 C 379.747 255.114 379.809 254.506 379.921 253.91 C 380.045 253.314 380.219 252.731 380.455 252.16 C 380.691 251.601 380.976 251.068 381.312 250.559 C 381.647 250.05 382.044 249.566 382.466 249.144 C 384.626 246.984 387.841 245.991 390.87 246.599 C 391.466 246.723 392.049 246.897 392.608 247.133 C 393.179 247.356 393.713 247.654 394.222 247.99 C 394.731 248.325 395.203 248.71 395.637 249.144 C 397.375 250.882 398.368 253.278 398.368 255.723 C 398.368 256.331 398.306 256.94 398.182 257.548 C 398.058 258.144 397.884 258.727 397.648 259.286 C 397.412 259.845 397.127 260.391 396.791 260.9 C 396.456 261.409 396.059 261.881 395.637 262.315 C 393.898 264.039 391.502 265.033 389.057 265.033 Z"/>
    <path style="fill: rgb(249, 249, 40);" d="M 412.457 250.339 C 409.999 250.339 407.603 249.346 405.866 247.62 C 405.444 247.186 405.047 246.714 404.712 246.205 C 404.377 245.696 404.091 245.15 403.855 244.591 C 403.619 244.032 403.445 243.449 403.321 242.853 C 403.209 242.245 403.147 241.636 403.147 241.028 C 403.147 240.42 403.209 239.812 403.321 239.216 C 403.445 238.62 403.619 238.037 403.855 237.466 C 404.091 236.907 404.376 236.374 404.712 235.865 C 405.047 235.356 405.444 234.872 405.866 234.45 C 408.026 232.29 411.241 231.297 414.27 231.905 C 414.866 232.029 415.449 232.203 416.008 232.439 C 416.579 232.662 417.113 232.96 417.622 233.296 C 418.131 233.631 418.603 234.016 419.037 234.45 C 420.775 236.188 421.768 238.584 421.768 241.029 C 421.768 241.637 421.706 242.246 421.582 242.854 C 421.458 243.45 421.284 244.033 421.048 244.592 C 420.812 245.151 420.527 245.697 420.191 246.206 C 419.856 246.715 419.459 247.187 419.037 247.621 C 417.298 249.345 414.902 250.339 412.457 250.339 Z"/>
  </g>
</svg>