<?xml version="1.0" encoding="utf-8"?>
<svg viewBox="0 0 948.148 512" xmlns="http://www.w3.org/2000/svg">
  <g id="XMLID_848_" transform="matrix(1.706854, 0, 0, 1.462857, 461.694611, 0)" style="">
    <polygon id="XMLID_37_" style="fill:#003778;" points="65.001,60 122.713,43.592 172.713,190 115,206.408 &#9;"/>
    <polygon id="XMLID_36_" style="fill:#0052B4;" points="285,60 227.287,43.592 177.287,190 235,206.408 &#9;"/>
    <circle id="XMLID_849_" style="fill:#FF9811;" cx="175" cy="260" r="90"/>
    <path id="XMLID_850_" style="fill:#BF720D;" d="M175,350c-49.705,0-90-40.295-90-90c0-49.706,40.295-90,90-90"/>
    <circle id="XMLID_851_" style="fill:#FFDA44;" cx="175" cy="260" r="60"/>
    <rect id="XMLID_852_" x="65" style="fill: rgb(0, 82, 180);" width="110.443" height="60"/>
    <rect id="XMLID_853_" x="175" style="fill:#006DF0;" width="110" height="60"/>
  </g>
  <g id="XMLID_1088_" transform="matrix(2.002172, 0, 0, 1.462238, -110.119476, 0.108337)" style="">
    <rect id="XMLID_1089_" x="55" y="30" style="fill: rgb(255, 218, 68); stroke-linejoin: round; stroke-linecap: round;" width="240" height="320"/>
    <circle id="XMLID_1091_" style="fill:#006DF0;" cx="175" cy="30" r="30"/>
    <path id="XMLID_1092_" style="fill:#0052B4;" d="M175,60c-16.568,0-30-13.432-30-30s13.432-30,30-30"/>
    <rect id="XMLID_1093_" x="105" y="30" style="fill: rgb(0, 82, 180);" width="70.926" height="50"/>
    <rect id="XMLID_1094_" x="175" y="30" style="fill:#006DF0;" width="70" height="50"/>
    <rect id="XMLID_1090_" x="108.776" y="124.555" style="stroke-linecap: round; stroke-linejoin: round; stroke-width: 5.77299px; fill: rgb(110, 110, 110); stroke: rgb(110, 110, 110);" width="167.856" height="30"/>
    <polyline id="XMLID_1095_" style="fill: none; stroke-miterlimit: 10; stroke-linecap: round; stroke-linejoin: round; stroke: rgb(212, 4, 0); stroke-width: 17.8963px;" points="65.761 133.876 85.319 164.992 124.436 102.758"/>
    <rect id="rect-5" x="108.776" y="193.664" style="stroke-linecap: round; stroke-linejoin: round; stroke-width: 5.77299px; fill: rgb(110, 110, 110); stroke: rgb(110, 110, 110);" width="167.856" height="30"/>
    <rect id="rect-6" x="108.898" y="264.223" style="stroke-linecap: round; stroke-linejoin: round; stroke-width: 5.77299px; fill: rgb(110, 110, 110); stroke: rgb(110, 110, 110);" width="167.856" height="30"/>
    <polyline id="polyline-1" style="fill: none; stroke-miterlimit: 10; stroke-linecap: round; stroke-linejoin: round; stroke: rgb(212, 4, 0); stroke-width: 17.8963px;" points="65.883 273.544 85.441 304.66 124.558 242.426"/>
  </g>
</svg>