<?xml version="1.0" encoding="utf-8"?>
<svg viewBox="0 0 500 500" xmlns="http://www.w3.org/2000/svg">
  <path style="filter: none; stroke: rgba(131, 131, 131, 0.46); fill: rgb(226, 128, 0); stroke-width: 0px;" d="M 475.477 139.898 C 478.514 125.25 478.33 110.008 474.945 95.354 L 459.861 95.354 C 457.963 88.403 455.217 81.651 451.595 75.27 L 462.121 64.231 C 458.272 58.005 453.698 52.138 448.4 46.721 C 445.421 43.674 442.305 40.86 439.072 38.292 C 436.556 36.299 433.98 34.443 431.328 32.732 L 420.795 43.77 C 417.854 42.033 414.841 40.502 411.768 39.166 C 408.351 37.687 404.85 36.454 401.306 35.467 L 401.116 19.848 C 392.484 17.819 383.641 17.029 374.866 17.471 C 369.227 17.754 363.618 18.55 358.107 19.854 L 358.294 35.467 C 356.341 36.011 354.401 36.633 352.49 37.34 C 347.845 39.034 343.328 41.177 338.994 43.77 L 328.201 32.732 C 322.242 36.645 316.627 41.304 311.467 46.721 C 306.3 52.138 301.867 58.005 298.167 64.231 L 308.96 75.27 C 306.506 79.789 304.494 84.494 302.916 89.325 C 302.263 91.313 301.686 93.33 301.18 95.354 L 286.108 95.354 C 284.917 101.083 284.218 106.896 284.017 112.738 C 283.699 121.832 284.572 130.979 286.64 139.898 L 301.717 139.898 C 303.616 146.842 306.369 153.594 309.984 159.976 L 299.456 171.015 C 303.306 177.241 307.881 183.108 313.179 188.526 C 314.53 189.908 315.911 191.237 317.314 192.524 C 321.417 196.272 325.74 199.6 330.251 202.515 L 333.134 199.493 L 340.777 191.476 C 346.414 194.8 352.329 197.385 358.41 199.235 C 359.031 199.426 359.652 199.607 360.278 199.78 L 360.468 215.404 C 374.654 218.726 389.378 218.726 403.478 215.398 L 403.29 199.78 C 409.978 197.905 416.466 195.14 422.579 191.476 L 433.377 202.515 C 439.338 198.599 444.951 193.942 450.113 188.526 C 455.279 183.108 459.711 177.241 463.411 171.015 L 452.618 159.976 C 456.079 153.594 458.668 146.842 460.394 139.898 L 475.477 139.898 Z M 416.538 154.187 C 404.893 166.4 388.729 171.225 373.402 168.669 C 366.063 167.447 358.917 164.525 352.548 159.91 C 350.227 158.229 348.006 156.319 345.923 154.187 C 343.622 151.835 341.581 149.314 339.809 146.656 C 326.351 126.537 328.023 98.898 345.039 81.058 C 354.483 71.163 366.885 66.111 379.41 65.919 C 385.405 65.829 391.417 66.846 397.149 68.973 C 403.885 71.469 410.217 75.498 415.655 81.058 C 415.82 81.226 415.978 81.387 416.13 81.556 C 435.411 101.784 435.64 134.163 416.538 154.187 Z" transform="matrix(0.965926, 0.258819, -0.258819, 0.965926, 43.418267, -94.547758)"/>
  <path style="filter: none; fill: rgb(176, 176, 176); stroke: rgba(131, 131, 131, 0.46); stroke-width: 0px; stroke-opacity: 0; stroke-miterlimit: 1;" d="M 182.805 378.364 C 163.701 378.364 145.742 371.22 132.236 358.247 C 118.724 345.273 111.283 328.022 111.283 309.671 C 111.283 291.322 118.724 274.07 132.234 261.097 C 145.742 248.122 163.701 240.977 182.805 240.977 C 201.908 240.977 219.866 248.122 233.374 261.095 C 246.886 274.069 254.327 291.321 254.328 309.671 C 254.327 328.02 246.886 345.272 233.376 358.244 C 219.866 371.22 201.908 378.364 182.805 378.364 Z M 182.805 264.843 C 170.337 264.843 158.616 269.505 149.799 277.975 C 140.984 286.435 136.126 297.691 136.126 309.668 C 136.126 321.643 140.982 332.902 149.799 341.37 C 158.615 349.838 170.337 354.501 182.805 354.501 C 195.272 354.501 206.993 349.838 215.81 341.37 C 224.626 332.902 229.482 321.643 229.482 309.668 C 229.482 297.691 224.625 286.435 215.805 277.97 C 206.993 269.505 195.273 264.843 182.805 264.843 Z" transform="matrix(-0.000001, 1, -1, -0.000001, 492.476203, 126.865326)"/>
  <path style="filter: none; stroke: rgba(131, 131, 131, 0.46); fill: rgb(0, 228, 57); stroke-width: 0px;" d="M 343.109 347.384 C 348.251 322.584 347.939 296.78 342.208 271.97 L 316.672 271.97 C 313.458 260.203 308.809 248.771 302.678 237.967 L 320.5 219.279 C 313.981 208.739 306.238 198.806 297.269 189.634 C 292.225 184.476 286.952 179.712 281.478 175.364 C 277.218 171.989 272.854 168.847 268.365 165.949 L 250.535 184.638 C 245.556 181.699 240.455 179.104 235.25 176.844 C 229.466 174.34 223.538 172.253 217.537 170.581 L 217.218 144.138 C 202.605 140.704 187.633 139.365 172.775 140.115 C 163.229 140.591 153.732 141.94 144.402 144.149 L 144.721 170.581 C 141.413 171.503 138.128 172.557 134.893 173.753 C 127.03 176.621 119.382 180.249 112.044 184.638 L 93.771 165.949 C 83.683 172.577 74.177 180.463 65.44 189.634 C 56.692 198.806 49.188 208.739 42.924 219.279 L 61.198 237.967 C 57.042 245.62 53.635 253.586 50.964 261.763 C 49.859 265.129 48.882 268.545 48.023 271.97 L 22.508 271.97 C 20.492 281.669 19.309 291.51 18.969 301.402 C 18.429 316.796 19.907 332.283 23.408 347.384 L 48.934 347.384 C 52.149 359.14 56.809 370.572 62.929 381.376 L 45.107 400.065 C 51.625 410.604 59.368 420.537 68.337 429.709 C 70.626 432.051 72.963 434.301 75.339 436.479 C 82.285 442.824 89.605 448.459 97.24 453.395 L 102.122 448.277 L 115.063 434.705 C 124.605 440.331 134.62 444.708 144.915 447.84 C 145.966 448.164 147.018 448.469 148.079 448.764 L 148.398 475.215 C 172.415 480.84 197.342 480.84 221.214 475.205 L 220.895 448.764 C 232.22 445.59 243.203 440.907 253.552 434.705 L 271.834 453.395 C 281.925 446.766 291.43 438.882 300.168 429.709 C 308.915 420.537 316.418 410.604 322.682 400.065 L 304.409 381.376 C 310.268 370.572 314.652 359.14 317.573 347.384 L 343.109 347.384 Z M 243.325 371.575 C 223.61 392.25 196.245 400.419 170.295 396.092 C 157.871 394.024 145.773 389.078 134.991 381.265 C 131.06 378.417 127.302 375.184 123.775 371.575 C 119.88 367.593 116.423 363.326 113.422 358.825 C 90.639 324.762 93.47 277.97 122.28 247.768 C 138.267 231.015 159.264 222.461 180.469 222.138 C 190.618 221.985 200.796 223.707 210.5 227.306 C 221.904 231.533 232.625 238.353 241.832 247.768 C 242.109 248.051 242.376 248.325 242.635 248.61 C 275.277 282.855 275.666 337.675 243.325 371.575 Z"/>
  <circle style="fill: rgb(216, 216, 216);" cx="380.938" cy="117.768" r="36.242"/>
</svg>