<?xml version="1.0" encoding="utf-8"?>
<svg viewBox="0 0 514 514" xmlns="http://www.w3.org/2000/svg">
  <path d="M 395.032 253.447 C 395.032 330.49 332.575 392.947 255.532 392.947 C 178.489 392.947 116.032 330.49 116.032 253.447 C 116.032 176.404 178.489 113.947 255.532 113.947 C 332.575 113.947 395.032 176.404 395.032 253.447 Z" style="fill: rgb(6, 119, 224);"/>
  <path d="M 117.144 309.886 L 117.144 256.938 L 117.333 216.725 L 117.333 175.94 C 117.415 175.89 117.963 175.868 118.971 175.868 L 122.122 175.868 C 123.338 175.868 124.264 175.797 124.894 175.654 L 135.607 175.153 C 138.335 175.06 140.459 175.01 141.971 175.01 L 155.645 175.01 L 180.976 174.294 C 184.423 174.294 188.222 174.459 192.381 174.795 L 192.948 174.795 C 194.921 174.652 196.162 174.581 196.666 174.581 C 208.134 174.581 217.945 178.731 226.093 187.031 C 230.082 190.988 233.213 196.096 235.482 202.343 C 237.794 208.64 238.948 215.129 238.948 221.805 C 238.948 228.481 238.336 234.162 237.12 238.835 C 235.942 243.557 234.411 247.543 232.52 250.784 C 224.915 263.95 210.233 271.656 188.474 273.895 L 169.886 274.754 C 169.3 290.403 169.003 302.567 169.003 311.246 L 169.066 314.251 L 169.066 322.193 C 168.858 323.102 168.436 323.718 167.806 324.054 L 118.593 324.912 C 117.629 321.814 117.144 316.806 117.144 309.886 Z M 192.507 215.008 C 190.239 208.139 184.145 204.489 174.233 204.06 C 172.803 203.967 170.831 203.917 168.31 203.917 C 167.636 203.917 167.22 213.555 167.05 232.824 L 166.861 240.123 L 167.113 245.99 C 174.17 245.847 180.39 244.151 185.765 240.91 C 191.14 237.668 193.83 231.73 193.83 223.093 C 193.83 219.465 193.389 216.775 192.507 215.008 Z" style="white-space: pre; fill: rgb(208, 0, 208);"/>
  <path d="M 18.118 283.702 L 65.964 282.844 C 67.156 282.844 68.169 283.966 69.009 286.204 C 69.803 288.399 70.598 290.136 71.392 291.423 C 73.245 294.569 76.335 296.141 80.656 296.141 C 84.978 296.141 88.466 295.048 91.113 292.853 C 93.76 290.658 95.083 287.848 95.083 284.417 C 95.083 280.935 94.27 278.576 92.635 277.339 C 91.001 276.052 89.24 274.815 87.341 273.621 C 85.402 272.427 82.53 271.498 78.737 270.833 C 74.985 270.168 72.934 269.761 72.583 269.618 L 72.782 269.618 L 67.619 268.188 C 64.264 267.523 61.484 266.808 59.281 266.043 C 44.854 261.847 34.417 256.606 27.977 250.315 C 21.578 243.974 18.382 235.466 18.382 224.792 C 18.382 217.021 19.705 210.043 22.352 203.845 C 25 197.647 28.461 192.599 32.742 188.689 C 45.138 177.443 62.212 171.817 83.965 171.817 C 101.258 171.817 114.872 175.198 124.798 181.968 L 124.666 181.968 C 131.019 186.923 135.368 191.813 137.704 196.624 C 140.085 201.393 141.562 207.298 142.137 214.354 L 139.821 216.857 C 123.938 217.522 109.888 217.858 97.665 217.858 C 93.959 217.858 91.755 216.692 91.047 214.354 C 90.736 213.354 90.405 212.374 90.055 211.423 C 89.213 209.043 86.5 207.849 81.914 207.849 L 81.517 207.849 C 77.99 207.849 74.945 208.757 72.384 210.565 C 69.87 212.374 68.592 214.118 68.546 215.784 C 68.499 217.5 68.831 218.908 69.538 220.002 C 70.247 221.096 70.994 221.983 71.789 222.647 C 72.536 223.312 73.728 223.984 75.362 224.649 C 76.997 225.314 78.228 225.772 79.068 226.008 C 79.862 226.244 81.14 226.63 82.907 227.151 L 86.083 228.009 C 87.321 228.388 91.001 229.368 97.135 230.941 C 103.27 232.513 108.386 234.015 112.489 235.445 L 112.489 235.373 C 125.328 240.042 134.083 245.882 138.762 252.889 C 143.441 259.895 145.777 268.045 145.777 277.339 C 145.777 302.168 132.058 318.282 104.614 325.668 C 96.626 327.812 88.115 329.335 79.068 330.243 C 67.997 330.243 57.03 328.477 46.177 324.953 C 35.324 321.428 28.044 315.709 24.338 307.795 C 21.87 303.934 20.215 300.381 19.375 297.142 C 18.534 293.947 17.833 289.443 17.257 283.63 C 17.475 283.68 17.767 283.702 18.118 283.702 Z" style="white-space: pre; fill: rgb(64, 203, 0);"/>
  <path d="M 383.748 204.59 L 383.802 212.379 C 383.802 214.523 383.624 215.595 383.262 215.595 C 383.262 215.595 374.352 215.502 356.532 215.309 C 356.462 221.648 356.424 231.531 356.424 244.966 C 356.424 258.351 356.44 267.669 356.478 272.907 L 356.802 324.646 C 356.548 325.553 356.046 326.054 355.29 326.146 L 339.737 325.861 L 339.629 325.932 L 334.769 325.861 L 321.269 325.861 C 317.635 325.861 314.897 325.882 313.061 325.932 L 311.819 324.431 C 311.781 324.381 311.457 323.881 310.847 322.931 C 310.847 317.164 311.025 304.422 311.387 284.699 L 312.197 232.746 L 312.035 230.245 C 311.673 223.813 311.349 220.004 311.063 218.811 C 310.739 217.574 310.107 216.903 309.173 216.81 C 308.239 216.717 307.536 216.667 307.067 216.667 L 304.151 216.881 L 285.844 216.524 C 285.196 214.809 284.872 211 284.872 205.09 L 285.034 196.443 L 285.034 193.799 C 284.964 183.416 284.888 177.863 284.818 177.148 C 284.888 177.148 285.072 177.199 285.358 177.291 L 379.374 176.219 C 381.281 176.219 382.49 176.412 382.992 176.791 C 383.495 177.127 383.748 177.792 383.748 178.792 L 383.748 204.59 Z" style="white-space: pre; fill: rgb(236, 236, 0);"/>
  <path d="M 376.538 283.702 L 424.579 282.844 C 425.775 282.844 426.792 283.966 427.636 286.204 C 428.433 288.399 429.23 290.136 430.028 291.423 C 431.888 294.569 434.992 296.141 439.33 296.141 C 443.669 296.141 447.172 295.048 449.829 292.853 C 452.487 290.658 453.816 287.848 453.816 284.417 C 453.816 280.935 452.999 278.576 451.357 277.339 C 449.716 276.052 447.949 274.815 446.042 273.621 C 444.095 272.427 441.21 271.498 437.403 270.833 C 433.636 270.168 431.576 269.761 431.223 269.618 L 431.423 269.618 L 426.24 268.188 C 422.872 267.523 420.08 266.808 417.868 266.043 C 403.382 261.847 392.903 256.606 386.438 250.315 C 380.012 243.974 376.803 235.466 376.803 224.792 C 376.803 217.021 378.132 210.043 380.79 203.845 C 383.448 197.647 386.923 192.599 391.222 188.689 C 403.668 177.443 420.812 171.817 442.653 171.817 C 460.016 171.817 473.683 175.198 483.65 181.968 L 483.517 181.968 C 489.897 186.923 494.263 191.813 496.609 196.624 C 499 201.393 500.482 207.298 501.06 214.354 L 498.734 216.857 C 482.787 217.522 468.68 217.858 456.407 217.858 C 452.686 217.858 450.473 216.692 449.763 214.354 C 449.45 213.354 449.118 212.374 448.766 211.423 C 447.922 209.043 445.197 207.849 440.593 207.849 L 440.194 207.849 C 436.652 207.849 433.596 208.757 431.025 210.565 C 428.499 212.374 427.217 214.118 427.17 215.784 C 427.123 217.5 427.456 218.908 428.167 220.002 C 428.878 221.096 429.629 221.983 430.426 222.647 C 431.177 223.312 432.373 223.984 434.015 224.649 C 435.656 225.314 436.892 225.772 437.736 226.008 C 438.533 226.244 439.815 226.63 441.589 227.151 L 444.779 228.009 C 446.022 228.388 449.716 229.368 455.876 230.941 C 462.036 232.513 467.172 234.015 471.292 235.445 L 471.292 235.373 C 484.183 240.042 492.973 245.882 497.671 252.889 C 502.369 259.895 504.714 268.045 504.714 277.339 C 504.714 302.168 490.94 318.282 463.384 325.668 C 455.364 327.812 446.819 329.335 437.736 330.243 C 426.619 330.243 415.609 328.477 404.711 324.953 C 393.813 321.428 386.505 315.709 382.783 307.795 C 380.305 303.934 378.643 300.381 377.799 297.142 C 376.956 293.947 376.252 289.443 375.673 283.63 C 375.893 283.68 376.185 283.702 376.538 283.702 Z" style="white-space: pre; fill: rgb(142, 2, 217);"/>
  <circle style="fill: rgb(236, 236, 0);" cx="63.977" cy="447.836" r="50.549"/>
  <circle style="fill: rgb(0, 208, 0);" cx="407.92" cy="420.495" r="50.549"/>
  <circle style="fill: rgb(0, 208, 208);" cx="111.002" cy="80.38" r="50.549"/>
  <circle style="fill: rgb(208, 0, 0);" cx="440.728" cy="67.258" r="50.549"/>
</svg>