<?xml version="1.0" encoding="utf-8"?>
<svg viewBox="0 0 500 500" preserveAspectRatio="xMidYMid slice" xmlns="http://www.w3.org/2000/svg">
  <g transform="matrix(0.9375, 0, 0, 0.9375, 127.552483, -24.709658)">
    <path style="fill: rgb(46, 230, 230);" d="M 262.535 142.331 C 301.747 184.648 321.342 240.104 321.36 295.721 C 321.342 351.431 301.792 406.975 262.534 449.349 C 256.49 455.871 256.49 466.446 262.535 472.968 C 268.58 479.49 278.38 479.49 284.426 472.968 C 329.699 424.117 352.331 359.824 352.313 295.722 C 352.33 231.672 329.631 167.484 284.424 118.717 C 278.38 112.194 268.58 112.195 262.536 118.717 C 256.491 125.239 256.491 135.812 262.537 142.336 L 262.535 142.331 Z"/>
    <path style="fill: rgb(38, 191, 191);" d="M 321.355 295.841 C 321.31 351.51 301.765 407.005 262.534 449.349 C 256.49 455.871 256.49 466.446 262.536 472.968 C 268.581 479.49 278.381 479.49 284.426 472.968 C 329.67 424.148 352.299 359.904 352.308 295.843 L 321.355 295.843 L 321.355 295.841 Z"/>
    <path style="fill: rgb(46, 230, 230);" d="M 218.76 189.542 C 245.927 218.878 259.465 257.277 259.481 295.839 C 259.465 334.399 245.924 372.799 218.76 402.135 C 212.715 408.658 212.718 419.232 218.765 425.754 C 224.811 432.276 234.612 432.273 240.656 425.75 C 273.823 389.95 290.454 342.814 290.436 295.841 C 290.453 248.866 273.824 201.73 240.655 165.932 C 234.611 159.409 224.811 159.407 218.765 165.928 C 212.72 172.447 212.718 183.023 218.761 189.547 L 218.76 189.542 Z"/>
    <path style="fill: rgb(38, 191, 191);" d="M 218.761 402.136 C 212.717 408.659 212.72 419.233 218.765 425.755 C 224.811 432.277 234.613 432.274 240.656 425.751 C 273.823 389.951 290.454 342.815 290.436 295.842 L 259.482 295.842 C 259.465 334.401 245.927 372.799 218.761 402.136 Z"/>
    <path style="fill: rgb(46, 230, 230);" d="M 175.006 236.803 C 190.078 253.08 197.58 274.36 197.597 295.815 C 197.58 317.285 190.075 338.594 174.974 354.909 C 168.93 361.432 168.935 372.006 174.981 378.528 C 181.027 385.047 190.828 385.043 196.871 378.52 C 217.978 355.738 228.568 325.69 228.551 295.816 C 228.568 265.956 217.981 235.939 196.898 213.192 C 190.854 206.669 181.055 206.667 175.01 213.188 C 168.965 219.71 168.964 230.283 175.007 236.807 L 175.007 236.803 Z"/>
    <path style="fill: rgb(38, 191, 191);" d="M 197.596 295.841 C 197.571 317.302 190.069 338.603 174.974 354.91 C 168.932 361.433 168.936 372.007 174.981 378.529 C 181.027 385.048 190.829 385.044 196.871 378.521 C 217.973 355.745 228.558 325.707 228.548 295.841 L 197.596 295.841 L 197.596 295.841 Z"/>
    <g style="" transform="matrix(0.917184, 0, 0, 1, 20.99465, -2.828664)">
      <path style="fill: rgb(20, 79, 155);" d="M -13.868 178.945 L -106.731 178.945 C -115.24 178.945 -122.207 186.424 -122.207 195.644 L -122.207 396.037 C -122.207 405.253 -115.271 412.734 -106.731 412.734 L -13.868 412.734 C -5.327 412.734 1.608 405.253 1.608 396.037 L 1.608 195.644 C 1.608 186.424 -5.358 178.945 -13.868 178.945 Z"/>
      <path style="fill: rgb(0, 63, 132);" d="M -122.207 295.841 L -122.207 396.038 C -122.207 405.254 -115.271 412.735 -106.731 412.735 L -13.868 412.735 C -5.327 412.735 1.608 405.254 1.608 396.038 L 1.608 295.841 L -122.207 295.841 L -122.207 295.841 Z"/>
      <path style="fill: rgb(31, 99, 173);" d="M 116.87 80.509 C 111.616 77.676 105.36 78.282 100.662 82.087 L -29.345 178.945 L -29.345 412.737 L 100.662 509.593 C 110.864 517.849 125.425 509.995 125.425 496.233 L 125.425 95.448 C 125.425 89.11 122.123 83.345 116.87 80.509 Z"/>
      <path style="fill: rgb(0, 73, 153);" d="M -29.345 295.841 L -29.345 412.737 L 100.662 509.593 C 110.864 517.849 125.425 509.995 125.425 496.233 L 125.425 295.841 L -29.345 295.841 Z"/>
    </g>
  </g>
</svg>